<svg xmlns="http://www.w3.org/2000/svg" width="40" height="40" viewBox="0 0 48 48" role="img" aria-label="Microsoft Azure">
  <defs>
    <linearGradient id="azure-a" x1="0" y1="0" x2="0" y2="1">
      <stop offset="0" stop-color="#114a8b"/>
      <stop offset="1" stop-color="#0669bc"/>
    </linearGradient>
    <linearGradient id="azure-b" x1="0" y1="0" x2="1" y2="1">
      <stop offset="0" stop-color="#3ccbf4"/>
      <stop offset="1" stop-color="#2892df"/>
    </linearGradient>
  </defs>
  <path fill="url(#azure-a)" d="M17.1 5h12.4L16.6 43.2a2 2 0 0 1-1.9 1.3H5a2 2 0 0 1-1.9-2.6L15.2 6.3A2 2 0 0 1 17.1 5Z"/>
  <path fill="#0078d4" d="M35 30.8H15.4a.9.9 0 0 0-.6 1.6l12.6 11.8a2 2 0 0 0 1.4.5h11.1Z"/>
  <path fill="url(#azure-b)" d="M31.7 6.3A2 2 0 0 0 29.8 5h-12l13 38.4a2 2 0 0 0 1.9 1.3H43a2 2 0 0 0 1.9-2.6Z"/>
</svg>
