<svg xmlns="http://www.w3.org/2000/svg" width="40" height="40" viewBox="0 0 48 48" role="img" aria-label="Microsoft Word">
  <rect x="17" y="5" width="27" height="38" rx="3" fill="#185abd"/>
  <path fill="#41a5ee" d="M20 5h21a3 3 0 0 1 3 3v7H17V8a3 3 0 0 1 3-3Z"/>
  <path fill="#2b7cd3" d="M17 15h27v10H17Z"/>
  <path fill="#103f91" d="M17 34h27v6a3 3 0 0 1-3 3H20a3 3 0 0 1-3-3Z"/>
  <rect x="3" y="12" width="27" height="27" rx="2" fill="#103f91" opacity=".2"/>
  <rect x="2" y="10" width="27" height="27" rx="2" fill="#185abd"/>
  <path fill="white" d="m7 17 3.1 13h3.1l2.4-9 2.4 9h3.1l3.1-13h-3l-1.8 9.1L17 17h-2.8l-2.5 9.1L10 17Z"/>
</svg>
